<?xml version="1.0" encoding="utf-8"?>
<!-- Generator: Adobe Illustrator 16.0.0, SVG Export Plug-In . SVG Version: 6.00 Build 0)  -->
<!DOCTYPE svg PUBLIC "-//W3C//DTD SVG 1.1//EN" "http://www.w3.org/Graphics/SVG/1.1/DTD/svg11.dtd">
<svg version="1.1" id="Layer_1" xmlns="http://www.w3.org/2000/svg" xmlns:xlink="http://www.w3.org/1999/xlink" x="0px" y="0px"
	 width="169.768px" height="62.178px" viewBox="0 0 169.768 62.178" enable-background="new 0 0 169.768 62.178"
	 xml:space="preserve">
<text transform="matrix(1 0 0 1 9.0012 144.7908)" font-family="'Roboto-Light'" font-size="48">i</text>
<text transform="matrix(1 0 0 1 19.8987 144.7908)" font-family="'Roboto-Light'" font-size="59.9144">S</text>
<text transform="matrix(1 0 0 1 55.9128 144.7908)" font-family="'Candara'" font-size="72">!</text>
<text transform="matrix(1 0 0 1 74.053 144.7908)" font-family="'Roboto-Light'" font-size="59.9144">gaw</text>
<g>
	<rect x="0" y="24.063" fill="#50BE11" width="2.789" height="25.358"/>
	<rect x="0" y="12.86" fill="#50BE11" width="2.789" height="3.938"/>
	<path fill="#50BE11" d="M36.786,31.021c-2.351-1.949-5.856-3.521-10.518-4.709c-4.428-1.113-7.509-2.371-9.245-3.775
		c-1.735-1.403-2.604-3.197-2.604-5.383c0-2.301,0.946-4.202,2.838-5.704c1.891-1.501,4.573-2.253,8.045-2.253
		c3.511,0,6.261,0.902,8.25,2.707c1.989,1.804,2.984,4.158,2.984,7.063h3.48c0-3.665-1.336-6.709-4.008-9.127
		s-6.242-3.629-10.708-3.629c-4.291,0-7.758,1.011-10.4,3.029c-2.643,2.018-3.964,4.687-3.964,8c0,3.238,1.175,5.773,3.525,7.607
		c2.35,1.832,5.904,3.344,10.663,4.532c4.389,1.152,7.431,2.443,9.128,3.877c1.697,1.435,2.545,3.341,2.545,5.72
		c0,2.479-1.024,4.446-3.072,5.91c-2.048,1.463-4.788,2.192-8.221,2.192s-6.368-0.779-8.806-2.34
		c-2.438-1.561-3.657-4.037-3.657-7.43H9.564c0,4.252,1.57,7.436,4.71,9.551c3.141,2.117,6.886,3.174,11.234,3.174
		c4.389,0,7.953-0.984,10.693-2.955c2.739-1.969,4.109-4.688,4.109-8.162C40.312,35.604,39.136,32.972,36.786,31.021z"/>
	<path fill="#E8562D" d="M53.151,37.677c-2.014-0.335-3.689,0.021-5.027,1.066c-1.339,1.046-2.145,2.392-2.417,4.035
		c-0.254,1.531-0.013,2.926,0.727,4.185c0.737,1.26,1.943,2.027,3.617,2.305c1.984,0.329,3.643-0.053,4.975-1.143
		s2.138-2.472,2.414-4.145c0.254-1.53,0.021-2.896-0.697-4.093C56.022,38.691,54.824,37.954,53.151,37.677z"/>
	<path fill="#E8562D" d="M60.244,0.085c-3.347-0.554-5.421,1.594-6.227,6.443c-0.921,5.557-1.637,14.441-2.146,26.651l3.146,0.521
		c4.306-11.378,6.963-20.114,7.975-26.211C63.741,2.982,62.824,0.514,60.244,0.085z"/>
	<path fill="#50BE11" d="M86.362,22.683l-0.088,0.028c-1.053-1.772-2.38-3.139-3.979-4.096c-1.601-0.955-3.54-1.434-5.822-1.434
		c-3.92,0-6.938,1.491-9.055,4.477s-3.174,7.051-3.174,12.199v0.615c0,4.815,1.058,8.61,3.174,11.379
		c2.116,2.77,5.115,4.153,8.996,4.153c2.223,0,4.134-0.42,5.733-1.258s2.927-2.047,3.979-3.627l0.088,0.029v3.861
		c0,3.237-0.78,5.747-2.34,7.532c-1.562,1.785-3.911,2.679-7.05,2.679c-1.619,0-3.111-0.173-4.477-0.515
		c-1.366-0.34-2.741-0.844-4.125-1.506l-0.907,2.81c1.365,0.7,2.896,1.237,4.594,1.608c1.696,0.369,3.354,0.555,4.974,0.555
		c4.115,0,7.284-1.153,9.508-3.467c2.224-2.311,3.335-5.543,3.335-9.696V17.769h-2.955L86.362,22.683z M86.215,41.173
		c-0.839,1.834-2,3.263-3.481,4.285c-1.481,1.023-3.374,1.537-5.675,1.537c-3.14,0-5.476-1.117-7.006-3.352
		c-1.532-2.232-2.297-5.289-2.297-9.17v-0.615c0-4.096,0.775-7.392,2.326-9.889c1.551-2.496,3.896-3.744,7.036-3.744
		c2.418,0,4.344,0.575,5.777,1.727c1.435,1.151,2.54,2.662,3.32,4.535L86.215,41.173L86.215,41.173z"/>
	<path fill="#50BE11" d="M121.877,43.044V27.481c0-3.375-1.044-5.935-3.13-7.681c-2.087-1.745-4.915-2.618-8.484-2.618
		s-6.479,0.928-8.733,2.778c-2.252,1.854-3.379,4.027-3.379,6.525l3.481,0.029c0-1.795,0.79-3.302,2.37-4.521
		c1.58-1.219,3.618-1.828,6.114-1.828c2.651,0,4.694,0.635,6.129,1.902c1.434,1.267,2.149,3.053,2.149,5.354v3.92h-6.992
		c-4.368,0-7.796,0.863-10.282,2.591c-2.486,1.725-3.73,4.08-3.73,7.063c0,2.81,0.838,5.012,2.517,6.611
		c1.677,1.6,4.085,2.397,7.226,2.397c2.477,0,4.67-0.524,6.582-1.58c1.912-1.053,3.442-2.397,4.593-4.036l0.088,0.028
		c0,0.763,0.048,1.513,0.146,2.254c0.098,0.74,0.264,1.658,0.498,2.75h3.656c-0.312-1.053-0.525-2.098-0.644-3.131
		S121.877,44.177,121.877,43.044z M118.396,40.646c-0.857,1.873-2.237,3.389-4.14,4.549c-1.902,1.162-4.14,1.742-6.714,1.742
		c-2.126,0-3.77-0.537-4.93-1.609s-1.74-2.477-1.74-4.213c0-2.049,0.936-3.74,2.809-5.076c1.872-1.336,4.427-2.004,7.665-2.004
		h7.051L118.396,40.646L118.396,40.646z"/>
	<polygon fill="#50BE11" points="166.141,17.769 160.377,39.153 159.002,45.122 158.914,45.122 157.364,39.153 150.635,17.769 
		147.622,17.769 140.893,39.153 139.372,45.005 139.284,45.005 138.026,39.153 132.117,17.769 128.489,17.769 137.675,49.423 
		140.688,49.423 147.593,27.774 149.026,22.128 149.114,22.128 150.547,27.774 157.568,49.423 160.553,49.423 169.768,17.769 	"/>
</g>
</svg>
