<?xml version="1.0" encoding="utf-8"?>
<!-- Generator: Adobe Illustrator 16.0.0, SVG Export Plug-In . SVG Version: 6.00 Build 0)  -->
<!DOCTYPE svg PUBLIC "-//W3C//DTD SVG 1.1//EN" "http://www.w3.org/Graphics/SVG/1.1/DTD/svg11.dtd">
<svg version="1.1" id="Your_Icon" xmlns="http://www.w3.org/2000/svg" xmlns:xlink="http://www.w3.org/1999/xlink" x="0px" y="0px"
	 width="100px" height="100px" viewBox="0 0 100 100" enable-background="new 0 0 100 100" xml:space="preserve">
<path fill="#0A1B22" d="M64.074,11.371c9.672,0,18.099,5.318,22.527,13.186V6.836H2v18.343h39.206
	C45.534,16.97,54.146,11.371,64.074,11.371z"/>
<path fill="#0A1B22" d="M20.628,74.813H2v18.352h16.134v-6.699C18.134,82.322,19.031,78.38,20.628,74.813z"/>
<path fill="#0A1B22" d="M48.401,57.753c-5.276-4.03-8.946-10.049-9.909-16.936H2v18.351h36.008c2.789-0.91,5.756-1.415,8.839-1.415
	H48.401z"/>
<g>
	<circle fill="#063B4F" cx="66.833" cy="41.186" r="18.585"/>
	<path fill="#063B4F" d="M79.225,65.967H54.442c-11.358,0-20.651,9.294-20.651,20.652v4.818h66.084v-4.818
		C99.875,75.261,90.582,65.967,79.225,65.967z"/>
</g>
</svg>
