<svg xmlns="http://www.w3.org/2000/svg" xmlns:xlink="http://www.w3.org/1999/xlink" version="1.1" id="Layer_1" x="0px" y="0px" width="100px" height="100px" viewBox="0 0 100 100" enable-background="new 0 0 100 100" xml:space="preserve">
<path fill="#1bcdd9" d="M79.258,51.772L79.258,51.772c0,15.19-12.361,27.544-27.545,27.544c-9.004,0-16.993-4.341-22.021-11.032l8.247-8.25H13.146  v24.794l8.687-8.688c7.07,8.658,17.824,14.193,29.88,14.193c21.296,0,38.562-17.263,38.562-38.562H79.258z"/>
<path fill="#1bcdd9" d="M81.587,27.407c-7.069-8.661-17.825-14.202-29.877-14.202c-21.296,0-38.563,17.269-38.563,38.567h11.018  c0-15.19,12.355-27.547,27.546-27.547c8.995,0,16.993,4.338,22.023,11.029l-8.25,8.253h24.792V18.72L81.587,27.407z"/>
</svg>