<?xml version="1.0" encoding="utf-8"?>
<!-- Generator: Adobe Illustrator 16.0.0, SVG Export Plug-In . SVG Version: 6.00 Build 0)  -->
<!DOCTYPE svg PUBLIC "-//W3C//DTD SVG 1.1//EN" "http://www.w3.org/Graphics/SVG/1.1/DTD/svg11.dtd">
<svg version="1.1" id="Layer_1" xmlns="http://www.w3.org/2000/svg" xmlns:xlink="http://www.w3.org/1999/xlink" x="0px" y="0px"
	 width="100px" height="84.705px" viewBox="0 0 100 84.705" enable-background="new 0 0 100 84.705" xml:space="preserve">
<g>
	<path fill="#0a1b22" d="M76.829,70.955c0,2.394-1.985,4.337-4.427,4.337H14.03c-2.442,0-4.427-1.943-4.427-4.337V13.676
		c0-2.393,1.985-4.265,4.427-4.265h55.146l11.854-9.265C80.912,0.14,80.852,0,80.73,0H5.702C2.562,0,0,2.438,0,5.514v73.602
		c0,3.076,2.562,5.589,5.702,5.589H80.73c3.14,0,5.703-2.513,5.703-5.589V37.793l-9.604,7.5V70.955z"/>
	<polygon fill="#50BE11" points="90.148,1.189 85.848,5.216 95.699,15.32 100,11.293 	"/>
	<polygon fill="#50BE11" points="41.027,46.776 50.827,56.825 91.648,18.601 81.85,8.551 	"/>
	<polygon fill="#50BE11" points="32.103,64.431 42.145,64.655 42.256,64.659 45.812,61.33 35.997,51.263 35.997,51.263 
		32.384,54.646 	"/>
</g>
</svg>
